Genre:Action | Crime | Drama
Language:English
IMDb:http://www.imdb.com/title/tt1456060/
Source:DVD Thanks!

Format : AVI
Format/Info : Audio Video Interleave
File size : 854 MiB
Duration : 1h 36mn
Overall bit rate : 1 238 Kbps

Video
ID : 0
Format : MPEG-4 Visual
Format profile : Advanced Simple@L5
Format settings, BVOP : Yes
Format settings, QPel : No
Format settings, GMC : No warppoints
Format settings, Matrix : Default (H.263)
Codec ID : XVID
Codec ID/Hint : XviD
Duration : 1h 36mn
Bit rate : 781 Kbps
Width : 640 pixels
Height : 272 pixels
Display aspect ratio : 2.35:1
Frame rate : 23.976 fps
Color space : YUV
Chroma subsampling : 4:2:0
Bit depth : 8 bits
Scan type : Progressive
Bits/(Pixel*Frame) : 0.187
Stream size : 539 MiB (63%)
Writing library : XviD 1.2.1 (UTC 2008-12-04)

Audio
ID : 1
Format : AC-3
Format/Info : Audio Coding 3
Mode extension : CM (complete main)
Codec ID : 2000
Duration : 1h 36mn
Bit rate mode : Constant
Bit rate : 448 Kbps
Channel(s) : 6 channels
Channel positions : Front: L C R, Side: L R, LFE
Sampling rate : 48.0 KHz
Bit depth : 16 bits
Stream size : 309 MiB (36%)
Alignment : Aligned on interleaves
Interleave, duration : 42 ms (1.00 video frame)
Interleave, preload duration : 512 ms


Plot:
A young Brooklyn boy witnesses the brutal murder of his mother and grows up obsessed with finding her killer...

Screens
 
http://img834.imageshack.us/img834/4166/vlcsnap00001xv.png
 
http://img59.imageshack.us/img59/4676/vlcsnap00002wj.png
 
http://img853.imageshack.us/img853/5638/vlcsnap00004m.png